<svg width="121" height="32" viewBox="0 0 121 32" fill="none" xmlns="http://www.w3.org/2000/svg">
<path d="M13.3116 32C13.3116 32 26.6231 27.2842 26.6231 10.2737V4.21053C26.6231 3.53684 26.1301 3.03158 25.4728 2.86316C21.1999 2.69474 17.0914 1.85263 13.3116 0C9.53174 1.68421 5.42323 2.69474 1.15038 2.86316C0.493021 2.86316 0 3.53684 0 4.21053V10.2737C0 27.2842 13.3116 32 13.3116 32Z" fill="#ffffff"/>
<path d="M18.7316 12.632C18.5673 10.7794 17.0882 10.1057 15.1161 9.93729V7.24255H13.4726V9.76887H12.1579V7.24255H10.6789V9.76887H7.5564V11.4531H9.52848V19.7057H7.88508V21.5583H10.5145V24.2531H11.9936V21.5583H13.144V24.0846H14.7874V21.5583C17.4169 21.3899 19.2246 20.7162 19.389 18.3583C19.7176 16.8425 18.8959 15.4952 17.4169 15.1583H17.2525C18.2386 14.6531 18.8959 13.6426 18.7316 12.632ZM16.4308 18.1899C16.4308 20.211 13.144 19.8741 12.1579 19.8741V16.5057C13.3083 16.3373 16.4308 16.0004 16.4308 18.1899ZM15.7734 13.3057C15.7734 14.9899 13.144 14.8215 12.1579 14.8215V11.6215C13.144 11.6215 15.7734 11.4531 15.7734 13.3057Z" fill="#030405"/>
<path d="M53.0776 21.222C53.0776 22.4009 52.9133 23.5799 52.2559 24.5904C51.7629 25.4325 51.1056 26.2746 50.1195 26.7799C49.1335 27.2851 48.1474 27.7904 47.1614 27.9588C46.011 28.1272 44.8606 28.2957 43.7102 28.2957H34.0142V3.70618H43.7102C44.6963 3.70618 45.6823 3.8746 46.6684 4.04302C47.6544 4.21144 48.4761 4.54828 49.2978 5.05355C50.1195 5.55881 50.7769 6.23249 51.2699 6.90618C51.7629 7.9167 52.0916 8.92723 51.9273 10.1062C51.9273 11.2851 51.5986 12.4641 50.7769 13.4746C49.9552 14.3167 48.9691 14.9904 47.8188 15.3272C48.4761 15.4957 49.1335 15.6641 49.7908 16.0009C50.4482 16.3378 50.9412 16.6746 51.4342 17.1799C51.9273 17.6851 52.2559 18.1904 52.4203 18.8641C52.9133 19.7062 53.0776 20.3799 53.0776 21.222ZM46.504 10.7799C46.504 9.93776 46.1753 9.26407 45.518 8.92723C44.6963 8.42197 43.7102 8.25355 42.7242 8.42197H39.9304V13.4746H43.0529C43.8746 13.4746 44.8606 13.3062 45.518 12.8009C46.011 12.2957 46.504 11.622 46.504 10.7799ZM47.1614 20.7167C47.3257 19.8746 46.8327 19.0325 46.011 18.5272C45.025 18.022 44.0389 17.8536 43.0529 17.8536H39.7661V23.5799H43.0529C43.5459 23.5799 44.0389 23.5799 44.5319 23.4115C45.025 23.4115 45.518 23.243 45.8467 22.9062C46.6684 22.5693 47.3257 21.7272 47.1614 20.7167Z" fill="#ffffff"/>
<path d="M60.8046 5.3897C60.8046 5.89496 60.6402 6.2318 60.4759 6.56865C60.3115 6.90549 60.1472 7.24233 59.8185 7.57917C59.4898 7.91601 59.1612 8.08443 58.8325 8.25286C58.5038 8.42128 58.0108 8.42128 57.5178 8.42128C56.6961 8.42128 55.8744 8.08443 55.217 7.57917C54.5596 7.07391 54.231 6.2318 54.231 5.3897C54.231 5.05285 54.3953 4.54759 54.5596 4.21075C54.724 3.87391 54.8883 3.53707 55.217 3.20022C55.5457 2.86338 55.8744 2.69496 56.203 2.52654C56.5317 2.35812 57.0247 2.1897 57.5178 2.1897C58.0108 2.1897 58.3395 2.1897 58.8325 2.35812C59.1612 2.52654 59.4898 2.69496 59.8185 3.0318C60.1472 3.36864 60.3115 3.70549 60.4759 4.04233C60.8046 4.54759 60.8046 5.05285 60.8046 5.3897ZM54.724 28.4634V10.9476H60.3115V28.4634H54.724Z" fill="#ffffff"/>
<path d="M70.6665 15.3257V22.0626C70.6665 22.7363 70.8308 23.4099 71.1595 23.9152C71.6525 24.4205 72.1455 24.5889 72.8029 24.5889C73.1316 24.5889 73.4602 24.5889 73.6246 24.5889C73.9533 24.5889 74.1176 24.4205 74.4463 24.4205V28.631C73.9533 28.7994 73.4603 28.9678 72.9672 28.9678C72.3099 29.1363 71.8168 29.1363 71.1595 29.1363C70.1734 29.1363 69.1874 28.9678 68.2014 28.631C67.544 28.2941 66.8866 27.9573 66.3936 27.2836C65.9006 26.7784 65.5719 26.1047 65.4076 25.2626C65.2432 24.4205 65.2432 23.4099 65.2432 22.5678V15.1573H62.4495V10.9468H65.0789V6.39941H70.6665V10.9468H74.6106V15.1573H70.6665V15.3257Z" fill="#ffffff"/>
<path d="M94.8202 28.4618C93.1768 28.7986 91.3691 29.1355 89.5613 28.967C87.7536 28.967 85.9458 28.6302 84.3024 27.9565C82.659 27.4513 81.3443 26.4407 80.0296 25.2618C78.8792 24.0828 77.8932 22.7355 77.2358 21.0513C75.9211 17.5144 75.9211 13.8091 77.2358 10.2723C77.8932 8.75652 78.8792 7.24073 80.0296 6.06178C81.18 4.88283 82.659 4.04073 84.3024 3.53546C85.9458 2.86178 87.7536 2.69336 89.397 2.69336C91.2047 2.69336 93.0125 3.0302 94.6559 3.53546C96.1349 4.04073 97.4497 4.88283 98.6001 5.89336L95.1489 10.6091C94.4915 9.93546 93.6698 9.26178 92.8481 8.92494C91.8621 8.41967 90.8761 8.25125 89.7257 8.25125C88.7396 8.25125 87.7536 8.41968 86.9319 8.75652C85.1241 9.59862 83.8094 10.946 83.1521 12.7986C82.8234 13.8092 82.659 14.8197 82.659 15.8302C82.659 16.8407 82.8234 18.0197 83.1521 19.0302C83.4807 19.8723 83.9738 20.7144 84.6311 21.5565C85.2885 22.2302 86.1102 22.9039 86.9319 23.2407C87.9179 23.5776 89.0683 23.9144 90.0544 23.746C90.7117 23.746 91.3691 23.746 92.0264 23.5776C92.5195 23.4091 93.1768 23.2407 93.6698 23.0723V18.5249H89.0683V13.6407H99.0931V26.7776C97.7784 27.6197 96.2993 28.1249 94.8202 28.4618Z" fill="#ffffff"/>
<path d="M120.13 19.7057C120.13 21.053 119.965 22.4004 119.308 23.5794C118.815 24.7583 118.158 25.7688 117.336 26.6109C116.514 27.453 115.364 28.1267 114.378 28.4636C112.077 29.3057 109.448 29.3057 107.147 28.4636C105.996 27.9583 105.01 27.453 104.189 26.6109C103.367 25.7688 102.545 24.7583 102.217 23.5794C101.231 21.053 101.231 18.3583 102.217 15.832C102.71 14.653 103.367 13.8109 104.189 12.9688C105.01 12.1267 106.161 11.6215 107.147 11.1162C109.448 10.2741 112.077 10.2741 114.378 11.1162C115.528 11.453 116.514 12.1267 117.336 12.9688C118.158 13.8109 118.979 14.653 119.308 15.832C119.965 17.0109 120.13 18.3583 120.13 19.7057ZM114.706 19.7057C114.706 19.2004 114.542 18.5267 114.378 18.0215C114.213 17.5162 113.885 17.0109 113.556 16.6741C113.227 16.3373 112.734 16.0004 112.241 15.6636C111.091 15.1583 109.941 15.1583 108.79 15.6636C108.297 15.832 107.804 16.1688 107.475 16.6741C107.147 17.0109 106.818 17.5162 106.654 18.0215C106.489 18.5267 106.325 19.2004 106.325 19.7057C106.325 20.2109 106.489 20.8846 106.654 21.3899C106.818 21.8951 107.147 22.4004 107.475 22.9057C107.804 23.4109 108.297 23.7478 108.79 23.9162C109.941 24.4215 111.091 24.4215 112.241 23.9162C112.734 23.7478 113.227 23.2425 113.556 22.9057C113.885 22.4004 114.213 21.8951 114.378 21.3899C114.706 20.7162 114.706 20.2109 114.706 19.7057Z" fill="#ffffff"/>
</svg>
