<svg width="110" height="32" viewBox="0 0 110 32" fill="none" xmlns="http://www.w3.org/2000/svg">
<path d="M5.22988 29.1531C6.23467 29.1531 7.25806 28.7438 8.09539 28.2414V25.2642C7.01617 25.4689 5.89974 25.5619 4.7833 25.8038C3.89016 25.9899 3.2389 26.4551 3.2389 27.4785C3.2389 28.7065 4.16926 29.1531 5.22988 29.1531ZM8.22564 30.4742C7.29528 31.4604 5.95556 32 4.65305 32C2.02943 32 0.0756779 30.2323 0.00124903 27.6459C-0.0545726 25.227 1.76893 23.6268 3.81573 23.3477L8.16982 22.715C8.07678 21.4311 6.04859 20.9659 5.15545 20.9659C4.02041 20.9659 2.62487 21.2637 1.63868 21.7474H1.28515V18.8075C2.55044 18.454 3.81573 18.1562 5.21127 18.1562C8.24424 18.1562 11.2028 19.2913 11.3144 22.6406V31.6837H8.22564V30.4742Z" fill="#ffffff"/>
<path d="M21.0085 21.1892H20.5805C19.4641 20.7427 17.8081 21.2078 16.7847 21.8405V31.6837H13.5842V18.4354H16.6916V19.2913C18.0314 18.6028 19.4641 18.1562 21.0085 18.1562V21.1892Z" fill="#ffffff"/>
<path d="M36.0434 23.5711C36.0434 22.529 35.9131 21.1149 34.5176 21.1707C33.6803 21.1893 32.9732 21.8778 32.4522 22.4546V31.6838H29.289V23.5711C29.289 22.5663 29.1959 21.1707 27.8562 21.1707C27.0747 21.1707 26.1816 21.7289 25.6233 22.2313V31.6838H22.4043V18.4355H25.5489V19.3286C26.1816 18.696 27.1864 18.1564 28.0981 18.1564C29.4564 18.1377 30.6101 18.696 31.4102 19.6635C32.3033 18.8634 33.457 18.1191 34.7409 18.1191C37.532 18.1191 39.2252 20.2962 39.2438 23.1059V31.6838H36.0248V23.5711H36.0434Z" fill="#ffffff"/>
<path d="M45.7189 29.1531C46.7237 29.1531 47.7471 28.7438 48.5844 28.2414V25.2642C47.5052 25.4689 46.3887 25.5619 45.2723 25.8038C44.3792 25.9899 43.7279 26.4551 43.7279 27.4785C43.7279 28.7065 44.6583 29.1531 45.7189 29.1531ZM48.7146 30.4742C47.7843 31.4604 46.4446 32 45.1421 32C42.5184 32 40.5647 30.2323 40.4903 27.6459C40.4344 25.227 42.2579 23.6268 44.3047 23.3477L48.6588 22.715C48.5658 21.4311 46.5376 20.9659 45.6445 20.9659C44.5094 20.9659 43.1139 21.2637 42.1277 21.7474H41.7742V18.8075C43.0395 18.454 44.3047 18.1562 45.7003 18.1562C48.7333 18.1562 51.6918 19.2913 51.8034 22.6406V31.6837H48.7146V30.4742Z" fill="#ffffff"/>
<path d="M65.7213 23.0872V31.6837H62.5208V23.4221C62.5394 22.1568 61.944 21.1148 60.5299 21.1148C59.4692 21.1148 58.1295 21.5986 57.2364 22.194V31.6837H54.0173V18.4354H57.1247V19.2913C58.3342 18.6773 59.6739 18.1562 60.995 18.1562C63.7861 18.1562 65.7213 20.1286 65.7213 23.0872Z" fill="#ffffff"/>
<path d="M71.1548 31.6837H67.9358V18.4354H71.1548V31.6837ZM71.1921 17.1515H67.9544V13.9883H71.1921V17.1515Z" fill="#ffffff"/>
<path d="M85.2406 23.0872V31.6837H82.0216V23.4221C82.0402 22.1568 81.4447 21.1148 80.0306 21.1148C78.97 21.1148 77.6303 21.5986 76.7371 22.194V31.6837H73.5181V18.4354H76.6255V19.2913C77.8349 18.6773 79.1747 18.1562 80.4958 18.1562C83.3055 18.1562 85.2406 20.1286 85.2406 23.0872Z" fill="#ffffff"/>
<path d="M93.1675 29.0963C94.991 29.0963 96.1819 27.5333 96.1819 25.0585C96.1819 22.5838 94.9724 21.0208 93.1675 21.0208C91.3812 21.0208 90.1531 22.5838 90.1531 25.0585C90.1531 27.5333 91.3626 29.0963 93.1675 29.0963ZM93.1861 18.1553C96.9262 18.1553 99.4754 20.8533 99.4754 25.0585C99.4754 29.2638 96.9448 31.9618 93.1861 31.9618C89.4275 31.9618 86.8411 29.2638 86.8411 25.0585C86.8411 20.8533 89.4275 18.1553 93.1861 18.1553Z" fill="#ffffff"/>
<path d="M103.755 8.62888L100.164 0.534741C100.052 0.292847 99.8473 0.106775 99.624 0.0323459C99.4008 -0.0420829 99.1961 0.0137387 99.0844 0.181204L90.5809 13.6528C90.4507 13.8575 90.5065 14.1924 90.7298 14.4343C90.9345 14.6948 91.2508 14.8065 91.4927 14.732L103.755 8.62888Z" fill="#ffffff"/>
<path d="M100.406 16.8529C100.275 17.0017 100.275 17.2436 100.387 17.4669C100.499 17.7088 100.703 17.8949 100.927 17.9693L108.128 20.351C108.351 20.4254 108.537 20.3696 108.649 20.2208C108.76 20.0719 108.76 19.8486 108.667 19.6253L105.597 12.7593L100.406 16.8529Z" fill="#ffffff"/>
<path d="M109.505 7.08463C109.3 6.80552 108.965 6.67527 108.723 6.76831L103.755 8.62903L105.597 12.7598L109.598 7.90335C109.765 7.69867 109.728 7.36374 109.505 7.08463Z" fill="#ffffff"/>
</svg>
